<svg xmlns="http://www.w3.org/2000/svg" viewBox="0 0 503.14 350.17"><defs><linearGradient id="a" y2="581.82" gradientUnits="userSpaceOnUse" x2="528.5" y1="548.09" x1="253.84"><stop offset="0" stop-color="#c08c31"/><stop offset="1" stop-color="#f5bf5e"/></linearGradient><linearGradient id="b" y2="501.82" gradientUnits="userSpaceOnUse" x2="493.77" y1="443.87" x1="522.07"><stop offset="0" stop-color="#95aa11"/><stop offset="1" stop-color="#f5bf5e"/></linearGradient><linearGradient id="c" y2="428.82" gradientUnits="userSpaceOnUse" x2="521.44" y1="503.99" x1="491.06"><stop offset="0" stop-color="#ffcc73"/><stop offset="1" stop-color="#8da90a"/></linearGradient><filter id="d" height="1.294" width="1.1735" color-interpolation-filters="sRGB" y="-.14699" x="-.086729"><feGaussianBlur stdDeviation="1.1203659"/></filter></defs><g fill-rule="evenodd"><path d="M211.55 524.37c9.0029 22.142 5.384 36.206 50.702 81.589 73.726 47.687 138.98 57.974 194.07 23.311 41.596-26.847 67.364-54.354 71.682-82.755-33.436 35.319-69.957 62.264-114.22 68.185-88.358-8.5007-127.73-70.145-181.83-100.82l-20.397 10.49z" fill="url(#a)" transform="translate(-309.12 -623.87) scale(1.4991)"/><path d="M235.44 499.31l-3.4967 16.318c-.13154.0658 92.58 75.251 127.05 86.834 43.457 14.605 56.215 13.186 55.364 12.821 43.445-3.878 79.249-30.926 113.38-68.959 2.1472-4.2847 6.0112-31.667-7.8965-48.762 0 0-3.4967-43.708 2.9139-49.536 6.4106-5.8278 6.4106-4.6622 6.4106-4.6622l-9.3244-4.0794s-35.2 127.58-117.14 131.13c-35.618 1.5396-58.396-5.8625-81.305-23.332-21.724-16.565-76.86-45.874-85.952-47.767z" fill="url(#b)" transform="translate(-309.12 -623.87) scale(1.4991)"/><path d="M519.94 439.77l-9.9836-2.396s-8.096 40.552-13.578 47.522c-5.4502 6.9294-15.281 16.044-39.136 43.528-75.476 63.495-117.91 22.183-143.36 14.376 27.306 20.18 55.46 36.414 102.62 25.754 43.914-9.9272 88.296-44.133 103.44-128.78z" fill="url(#c)" transform="translate(-309.12 -623.87) scale(1.4991)"/><path d="M463.845942 18.464368c-1.09470278 1.90760475-2.79792024 4.74510123-5.01928662 5.85578442-1.43567308.71784404-2.92294518 5.76898653-3.29277315 7.61797647-.6731109 3.3654795 2.37472431 2.60933346 4.96591866 3.25724448 6.90065712 1.72516428 10.56955446 2.98425837 14.63961096 5.01928662.64019066.32008783 7.92604152.86872845 8.35823205.436418 1.1629568-1.16295681-1.24762598-8.48565556-1.24762598-10.05671236 0-3.49530156.35033968-3.76453992-3.3461411-3.76453992-2.65715476 0-3.14421235 1.25482166-6.69243214 1.25482166-1.29163955 0-5.30516498-6.44867847-5.43753551-7.11068103-.12202675-.6102986-2.69133424-2.36767854-2.92789222-2.50964331z" fill="#7a4d2c"/><path d="M477.232905 13.442383c-2.16140238.01678992-9.86452773 2.85008892-12.33489462 5.32045581-2.87872173 2.87872173 1.74705114 4.17379422 3.47596317 6.10253628 2.35313727 2.62522392-1.48841142 3.26429025 6.76768695 5.01928662 2.86672893.60941413 3.51493977-.55114411 5.01928662-1.80281766 2.67694287-2.22721287 2.92369473.0059964 5.43753552-3.34614111 1.1884565-1.5845487.43145597-5.04567078 1.25482165-6.69243213.4577202-.9154554 4.58394798-2.91080247 5.43753552-3.76453992 2.31191202-2.31191202 2.816659-3.01139208-.41827888-5.43753552-2.02153635-1.51618974-1.82320542-1.85528616-2.5096433-4.60103772-.58601319-2.34399276-5.34893872.16481105-5.85578443.41827888-1.85213805.92605404-2.29422264 3.13072044-3.76453992 4.60103772" fill="#bd967a"/><path d="M497.380809.070411c-2.54292333-.33166088-6.2392542 1.05355249-8.9571225 2.17594365-2.1976806.9076151-1.42990154 5.28537687-1.05377735 6.52798086.73985082 2.44443246 6.68193843 2.11657929 8.9571225 1.74075492 3.06206166-.50584131 5.06440953-3.57895134 6.32260416-5.6576034 2.08704702-3.44763018-2.72596344-4.36717812-5.26888677-4.78722594z" fill="#53351d"/><path d="M231.01 504.75c3.116 4.5738 26.275 17.504 30.463 17.77 5.2871.3366-29.959-21.933-30.463-17.77z" transform="matrix(1.4914 -.15174 .18183 1.78708 -401.1122715 -736.4763956)" filter="url(#d)" fill="#cf890c"/><path d="M43.543275 125.470126l-.98948096 16.6939776-4.94747973 6.49185255-27.7063662 13.91104836-9.89495946-13.91104836 9.89495946-.92740322 1.97896191-14.83839162 7.91584764-1.85483643 8.90540356-7.41919581 7.91584764 4.63701612 6.92644164-2.7821797z" fill="#402921"/></g></svg>